<svg width="153" height="46" viewBox="0 0 153 46" fill="none" xmlns="http://www.w3.org/2000/svg">
<path d="M147.333 0H5.66667C2.53705 0 0 2.53705 0 5.66667V39.6667C0 42.7963 2.53705 45.3333 5.66667 45.3333H147.333C150.463 45.3333 153 42.7963 153 39.6667V5.66667C153 2.53705 150.463 0 147.333 0Z" fill="#A6A6A6"/>
<path d="M36.3946 21.8881C36.3633 18.4077 39.2444 16.7145 39.3761 16.6357C37.7445 14.2568 35.2155 13.9318 34.3267 13.9058C32.2027 13.6823 30.1423 15.1768 29.0603 15.1768C27.9567 15.1768 26.2905 13.9274 24.4947 13.9642C22.1839 13.9998 20.022 15.3377 18.8363 17.4153C16.3894 21.6516 18.2143 27.8769 20.5587 31.3011C21.7314 32.9781 23.1017 34.8506 24.8954 34.7847C26.6501 34.7123 27.3056 33.666 29.4232 33.666C31.5213 33.666 32.1368 34.7847 33.9661 34.7426C35.8493 34.7123 37.035 33.058 38.1667 31.3659C39.5219 29.4438 40.0661 27.5508 40.0877 27.4536C40.0435 27.4385 36.4303 26.0595 36.3946 21.8881Z" fill="white"/>
<path d="M32.9391 11.6533C33.8829 10.473 34.5287 8.86728 34.3494 7.23779C32.9834 7.29826 31.2751 8.18266 30.2913 9.33702C29.421 10.3542 28.6435 12.0215 28.8443 13.5895C30.3788 13.7039 31.9543 12.8152 32.9391 11.6533Z" fill="white"/>
<path d="M61.7891 34.5437H59.3367L57.9934 30.3226H53.3241L52.0445 34.5437H49.657L54.283 20.1731H57.1403L61.7891 34.5437ZM57.5885 28.5516L56.3736 24.7992C56.2451 24.4158 56.0043 23.5131 55.6491 22.092H55.6059C55.4644 22.7032 55.2366 23.6059 54.9234 24.7992L53.7302 28.5516H57.5885V28.5516Z" fill="white"/>
<path d="M73.6855 29.2352C73.6855 30.9975 73.2093 32.3905 72.2569 33.4131C71.4038 34.3234 70.3445 34.778 69.08 34.778C67.7151 34.778 66.7346 34.2878 66.1374 33.3073H66.0942V38.7659H63.792V27.5927C63.792 26.4848 63.7628 25.3477 63.7067 24.1815H65.7314L65.8599 25.8239H65.9031C66.6708 24.5864 67.836 23.9688 69.3996 23.9688C70.622 23.9688 71.6425 24.4514 72.4588 25.4179C73.2773 26.3854 73.6855 27.6575 73.6855 29.2352ZM71.3401 29.3194C71.3401 28.3108 71.1133 27.4793 70.6576 26.8249C70.1598 26.1425 69.4914 25.8013 68.6534 25.8013C68.0854 25.8013 67.5693 25.9913 67.1082 26.366C66.646 26.744 66.3436 27.2374 66.2022 27.8486C66.1309 28.1337 66.0953 28.367 66.0953 28.5505V30.2783C66.0953 31.032 66.3264 31.6681 66.7885 32.1875C67.2507 32.7069 67.8511 32.966 68.5897 32.966C69.4569 32.966 70.1318 32.6313 70.6144 31.9639C71.0982 31.2955 71.3401 30.4144 71.3401 29.3194Z" fill="white"/>
<path d="M85.604 29.2352C85.604 30.9975 85.1278 32.3905 84.1743 33.4131C83.3223 34.3234 82.263 34.778 80.9985 34.778C79.6335 34.778 78.653 34.2878 78.057 33.3073H78.0138V38.7659H75.7115V27.5927C75.7115 26.4848 75.6824 25.3477 75.6262 24.1815H77.6509L77.7794 25.8239H77.8226C78.5893 24.5864 79.7545 23.9688 81.3192 23.9688C82.5405 23.9688 83.5609 24.4514 84.3795 25.4179C85.1947 26.3854 85.604 27.6575 85.604 29.2352ZM83.2586 29.3194C83.2586 28.3108 83.0307 27.4793 82.575 26.8249C82.0772 26.1425 81.411 25.8013 80.5719 25.8013C80.0028 25.8013 79.4878 25.9913 79.0256 26.366C78.5634 26.744 78.2621 27.2374 78.1207 27.8486C78.0505 28.1337 78.0138 28.367 78.0138 28.5505V30.2783C78.0138 31.032 78.2448 31.6681 78.7049 32.1875C79.167 32.7058 79.7674 32.966 80.5082 32.966C81.3753 32.966 82.0502 32.6313 82.5329 31.9639C83.0167 31.2955 83.2586 30.4144 83.2586 29.3194Z" fill="white"/>
<path d="M98.9295 30.5138C98.9295 31.7362 98.5051 32.7308 97.6531 33.4985C96.7169 34.3376 95.4135 34.7566 93.7387 34.7566C92.1923 34.7566 90.9527 34.4585 90.0143 33.8614L90.5477 31.9425C91.5585 32.5537 92.6675 32.8603 93.8758 32.8603C94.7429 32.8603 95.4178 32.6638 95.9027 32.2729C96.3854 31.882 96.6262 31.3572 96.6262 30.7028C96.6262 30.1197 96.4275 29.6284 96.029 29.2299C95.6327 28.8314 94.9708 28.461 94.0464 28.1187C91.5304 27.1803 90.2735 25.8057 90.2735 23.998C90.2735 22.8167 90.714 21.8481 91.5963 21.0943C92.4753 20.3395 93.648 19.9626 95.1144 19.9626C96.4221 19.9626 97.5084 20.1905 98.3755 20.6451L97.8 22.5219C96.9901 22.0813 96.0744 21.861 95.0496 21.861C94.2397 21.861 93.6069 22.0608 93.1534 22.4582C92.7701 22.8134 92.5778 23.2465 92.5778 23.7594C92.5778 24.3274 92.797 24.7971 93.2376 25.1664C93.621 25.5077 94.3175 25.877 95.3282 26.2754C96.5646 26.7732 97.4728 27.3553 98.057 28.0226C98.639 28.6878 98.9295 29.5204 98.9295 30.5138Z" fill="white"/>
<path d="M106.541 25.9093H104.003V30.9403C104.003 32.2199 104.451 32.8592 105.347 32.8592C105.758 32.8592 106.099 32.8235 106.369 32.7523L106.433 34.5005C105.98 34.6701 105.382 34.7554 104.643 34.7554C103.733 34.7554 103.023 34.4779 102.51 33.9239C101.999 33.3689 101.742 32.438 101.742 31.1303V25.9071H100.23V24.1794H101.742V22.2821L104.003 21.5996V24.1794H106.541V25.9093Z" fill="white"/>
<path d="M117.991 29.2774C117.991 30.8702 117.535 32.1779 116.626 33.2005C115.672 34.2534 114.407 34.7782 112.829 34.7782C111.309 34.7782 110.098 34.2739 109.195 33.2653C108.293 32.2567 107.841 30.9836 107.841 29.4491C107.841 27.8434 108.306 26.5281 109.238 25.5055C110.167 24.4818 111.422 23.97 113 23.97C114.52 23.97 115.744 24.4743 116.667 25.4839C117.55 26.4633 117.991 27.7278 117.991 29.2774ZM115.602 29.3519C115.602 28.3963 115.398 27.5767 114.984 26.8931C114.502 26.066 113.812 25.6535 112.918 25.6535C111.992 25.6535 111.289 26.067 110.807 26.8931C110.393 27.5777 110.189 28.4103 110.189 29.3951C110.189 30.3508 110.393 31.1704 110.807 31.8529C111.304 32.68 112 33.0925 112.897 33.0925C113.776 33.0925 114.466 32.6714 114.964 31.8313C115.388 31.1348 115.602 30.3065 115.602 29.3519Z" fill="white"/>
<path d="M125.474 26.2062C125.246 26.1641 125.003 26.1425 124.748 26.1425C123.938 26.1425 123.312 26.4481 122.872 27.0604C122.488 27.6003 122.296 28.2827 122.296 29.1067V34.5437H119.995L120.016 27.4448C120.016 26.2505 119.987 25.1631 119.93 24.1826H121.935L122.02 26.1652H122.083C122.326 25.4838 122.71 24.9352 123.234 24.5238C123.747 24.1534 124.301 23.9688 124.898 23.9688C125.111 23.9688 125.303 23.9839 125.474 24.0109V26.2062Z" fill="white"/>
<path d="M135.77 28.8725C135.77 29.285 135.743 29.6327 135.686 29.9167H128.779C128.806 30.9404 129.14 31.7233 129.782 32.2632C130.364 32.7459 131.116 32.9878 132.041 32.9878C133.063 32.9878 133.996 32.8247 134.835 32.4975L135.196 34.0957C134.215 34.5233 133.058 34.7361 131.722 34.7361C130.115 34.7361 128.854 34.2631 127.936 33.3182C127.02 32.3733 126.561 31.1045 126.561 29.5128C126.561 27.9503 126.988 26.6491 127.842 25.6113C128.736 24.5034 129.945 23.9495 131.465 23.9495C132.958 23.9495 134.089 24.5034 134.857 25.6113C135.465 26.4914 135.77 27.5799 135.77 28.8725ZM133.575 28.2753C133.59 27.5929 133.44 27.0033 133.128 26.5055C132.729 25.8651 132.117 25.5455 131.293 25.5455C130.541 25.5455 129.928 25.8576 129.461 26.4839C129.077 26.9817 128.85 27.5788 128.779 28.2743H133.575V28.2753Z" fill="white"/>
<path d="M56.8275 11.3325C56.8275 12.6035 56.4463 13.5603 55.685 14.2028C54.9799 14.7956 53.9778 15.0926 52.6798 15.0926C52.0362 15.0926 51.4855 15.0645 51.0244 15.0083V8.06385C51.6259 7.96666 52.2738 7.91699 52.9735 7.91699C54.21 7.91699 55.1419 8.18587 55.7703 8.72364C56.4744 9.33159 56.8275 10.2009 56.8275 11.3325ZM55.6343 11.3639C55.6343 10.5399 55.4162 9.90823 54.9799 9.46765C54.5436 9.02815 53.9065 8.80787 53.0675 8.80787C52.7111 8.80787 52.4077 8.83162 52.1561 8.8813V14.1607C52.2954 14.1823 52.5502 14.192 52.9206 14.192C53.7867 14.192 54.4551 13.9512 54.9259 13.4696C55.3967 12.988 55.6343 12.2861 55.6343 11.3639Z" fill="white"/>
<path d="M63.1544 12.4426C63.1544 13.2255 62.9308 13.8669 62.4838 14.3701C62.0151 14.8873 61.3942 15.1454 60.6189 15.1454C59.8716 15.1454 59.2766 14.8981 58.8328 14.4014C58.3901 13.9058 58.1687 13.2805 58.1687 12.5268C58.1687 11.7385 58.3965 11.0917 58.8544 10.5895C59.3123 10.0874 59.9278 9.83582 60.7031 9.83582C61.4504 9.83582 62.0508 10.0831 62.5054 10.5787C62.9373 11.0604 63.1544 11.6824 63.1544 12.4426ZM61.9806 12.4793C61.9806 12.0095 61.8791 11.6068 61.6771 11.2709C61.4396 10.8649 61.1016 10.6619 60.6621 10.6619C60.2075 10.6619 59.8619 10.8649 59.6243 11.2709C59.4213 11.6068 59.3209 12.016 59.3209 12.4998C59.3209 12.9695 59.4224 13.3723 59.6243 13.7081C59.8695 14.1142 60.2107 14.3172 60.6513 14.3172C61.0832 14.3172 61.4223 14.1109 61.6663 13.6973C61.8758 13.355 61.9806 12.949 61.9806 12.4793Z" fill="white"/>
<path d="M71.6377 9.93958L70.0449 15.03H69.0083L68.3485 12.8195C68.1811 12.2677 68.045 11.7192 67.9392 11.1749H67.9187C67.8204 11.7343 67.6844 12.2818 67.5094 12.8195L66.8086 15.03H65.7601L64.2623 9.93958H65.4253L66.0009 12.3595C66.1402 12.9318 66.2546 13.4772 66.3464 13.9933H66.3669C66.4512 13.5679 66.5905 13.0258 66.787 12.3703L67.5094 9.94066H68.4316L69.1238 12.3185C69.2912 12.8984 69.4272 13.4566 69.532 13.9944H69.5633C69.64 13.4707 69.7555 12.9124 69.9089 12.3185L70.5265 9.94066H71.6377V9.93958Z" fill="white"/>
<path d="M77.5044 15.0298H76.3727V12.1142C76.3727 11.2158 76.0315 10.7666 75.3469 10.7666C75.011 10.7666 74.74 10.8897 74.5294 11.137C74.321 11.3843 74.2152 11.6758 74.2152 12.0095V15.0287H73.0835V11.394C73.0835 10.9469 73.0695 10.4621 73.0425 9.93726H74.037L74.0899 10.7331H74.1212C74.253 10.4858 74.4495 10.2817 74.7076 10.1187C75.0143 9.92863 75.3577 9.83252 75.7335 9.83252C76.2086 9.83252 76.6038 9.98586 76.918 10.2936C77.309 10.6705 77.5044 11.2331 77.5044 11.9803V15.0298V15.0298Z" fill="white"/>
<path d="M80.625 15.03H79.4944V7.60388H80.625V15.03Z" fill="white"/>
<path d="M87.288 12.4426C87.288 13.2255 87.0645 13.8669 86.6174 14.3701C86.1488 14.8873 85.5268 15.1454 84.7525 15.1454C84.0042 15.1454 83.4092 14.8981 82.9665 14.4014C82.5237 13.9058 82.3024 13.2805 82.3024 12.5268C82.3024 11.7385 82.5302 11.0917 82.9881 10.5895C83.4459 10.0874 84.0614 9.83582 84.8357 9.83582C85.584 9.83582 86.1833 10.0831 86.639 10.5787C87.071 11.0604 87.288 11.6824 87.288 12.4426ZM86.1131 12.4793C86.1131 12.0095 86.0116 11.6068 85.8097 11.2709C85.5732 10.8649 85.2342 10.6619 84.7957 10.6619C84.34 10.6619 83.9945 10.8649 83.758 11.2709C83.555 11.6068 83.4546 12.016 83.4546 12.4998C83.4546 12.9695 83.5561 13.3723 83.758 13.7081C84.0031 14.1142 84.3444 14.3172 84.7849 14.3172C85.2169 14.3172 85.5549 14.1109 85.7989 13.6973C86.0095 13.355 86.1131 12.949 86.1131 12.4793Z" fill="white"/>
<path d="M92.7648 15.0299H91.7487L91.6645 14.4435H91.6331C91.2854 14.9111 90.7898 15.1454 90.1462 15.1454C89.6657 15.1454 89.2769 14.991 88.9843 14.6843C88.7186 14.4057 88.5858 14.0591 88.5858 13.6477C88.5858 13.0257 88.845 12.5516 89.3665 12.2234C89.887 11.8951 90.6192 11.7342 91.5619 11.7417V11.6467C91.5619 10.9761 91.2098 10.6414 90.5047 10.6414C90.0026 10.6414 89.5598 10.7677 89.1776 11.0182L88.9476 10.2753C89.4205 9.98267 90.0047 9.83582 90.6937 9.83582C92.0241 9.83582 92.6914 10.5377 92.6914 11.9415V13.8161C92.6914 14.3247 92.7162 14.7297 92.7648 15.0299ZM91.5899 13.2805V12.4955C90.3416 12.4739 89.7175 12.8162 89.7175 13.5213C89.7175 13.787 89.7888 13.9857 89.9345 14.1185C90.0803 14.2513 90.2661 14.3172 90.4874 14.3172C90.7358 14.3172 90.968 14.2384 91.1796 14.0818C91.3923 13.9241 91.523 13.7243 91.5716 13.4792C91.5835 13.4241 91.5899 13.3572 91.5899 13.2805Z" fill="white"/>
<path d="M99.195 15.03H98.1907L98.1378 14.2125H98.1065C97.7858 14.8345 97.2394 15.1455 96.4716 15.1455C95.8583 15.1455 95.3475 14.9047 94.9426 14.4231C94.5376 13.9415 94.3357 13.3163 94.3357 12.5485C94.3357 11.7246 94.5549 11.0572 94.9955 10.5475C95.422 10.0724 95.9447 9.83485 96.5667 9.83485C97.2502 9.83485 97.7286 10.0649 98.0007 10.5259H98.0223V7.60388H99.155V13.6586C99.155 14.1542 99.168 14.611 99.195 15.03ZM98.0223 12.8833V12.0345C98.0223 11.8876 98.0115 11.7689 97.991 11.6781C97.9273 11.406 97.7901 11.1771 97.5817 10.9924C97.3711 10.8078 97.1174 10.7149 96.8247 10.7149C96.4025 10.7149 96.0721 10.8823 95.8291 11.2181C95.5883 11.554 95.4663 11.9827 95.4663 12.5064C95.4663 13.0096 95.5818 13.4178 95.814 13.732C96.0591 14.0668 96.3896 14.2341 96.8031 14.2341C97.1746 14.2341 97.4716 14.0948 97.6973 13.8152C97.9154 13.5571 98.0223 13.2461 98.0223 12.8833Z" fill="white"/>
<path d="M108.874 12.4426C108.874 13.2255 108.65 13.8669 108.203 14.3701C107.735 14.8873 107.115 15.1454 106.338 15.1454C105.592 15.1454 104.997 14.8981 104.552 14.4014C104.11 13.9058 103.888 13.2805 103.888 12.5268C103.888 11.7385 104.116 11.0917 104.574 10.5895C105.032 10.0874 105.647 9.83582 106.424 9.83582C107.17 9.83582 107.771 10.0831 108.225 10.5787C108.657 11.0604 108.874 11.6824 108.874 12.4426ZM107.701 12.4793C107.701 12.0095 107.6 11.6068 107.398 11.2709C107.159 10.8649 106.822 10.6619 106.382 10.6619C105.928 10.6619 105.583 10.8649 105.344 11.2709C105.141 11.6068 105.041 12.016 105.041 12.4998C105.041 12.9695 105.142 13.3723 105.344 13.7081C105.589 14.1142 105.93 14.3172 106.371 14.3172C106.803 14.3172 107.143 14.1109 107.387 13.6973C107.595 13.355 107.701 12.949 107.701 12.4793Z" fill="white"/>
<path d="M114.959 15.0298H113.828V12.1142C113.828 11.2158 113.487 10.7666 112.801 10.7666C112.465 10.7666 112.194 10.8897 111.985 11.137C111.775 11.3843 111.671 11.6758 111.671 12.0095V15.0287H110.538V11.394C110.538 10.9469 110.525 10.4621 110.498 9.93726H111.491L111.544 10.7331H111.575C111.708 10.4858 111.905 10.2817 112.162 10.1187C112.47 9.92863 112.812 9.83252 113.189 9.83252C113.663 9.83252 114.058 9.98586 114.372 10.2936C114.764 10.6705 114.959 11.2331 114.959 11.9803V15.0298V15.0298Z" fill="white"/>
<path d="M122.575 10.7873H121.329V13.2601C121.329 13.8886 121.55 14.2029 121.988 14.2029C122.191 14.2029 122.36 14.1856 122.493 14.1499L122.522 15.0084C122.298 15.0926 122.005 15.1348 121.643 15.1348C121.196 15.1348 120.848 14.9987 120.597 14.7266C120.344 14.4545 120.219 13.9966 120.219 13.3541V10.7873H119.475V9.93962H120.219V9.00663L121.328 8.67188V9.93854H122.574V10.7873H122.575Z" fill="white"/>
<path d="M128.566 15.03H127.433V12.136C127.433 11.2235 127.092 10.7668 126.409 10.7668C125.884 10.7668 125.525 11.0313 125.329 11.5604C125.295 11.6717 125.276 11.8077 125.276 11.9675V15.0289H124.145V7.60388H125.276V10.6717H125.297C125.654 10.1134 126.165 9.83485 126.827 9.83485C127.295 9.83485 127.683 9.98818 127.991 10.2959C128.374 10.6793 128.566 11.2494 128.566 12.0032V15.03V15.03Z" fill="white"/>
<path d="M134.746 12.2438C134.746 12.4468 134.731 12.6175 134.704 12.7568H131.31C131.325 13.26 131.487 13.6433 131.801 13.909C132.089 14.1465 132.459 14.2653 132.913 14.2653C133.415 14.2653 133.873 14.1854 134.285 14.0245L134.462 14.8106C133.979 15.0201 133.411 15.1249 132.754 15.1249C131.965 15.1249 131.345 14.8927 130.895 14.4284C130.444 13.964 130.22 13.341 130.22 12.5591C130.22 11.7914 130.429 11.1521 130.849 10.6424C131.287 10.0982 131.88 9.82605 132.629 9.82605C133.361 9.82605 133.917 10.0982 134.293 10.6424C134.596 11.0744 134.746 11.6089 134.746 12.2438ZM133.666 11.9512C133.675 11.6154 133.6 11.326 133.447 11.0819C133.251 10.7677 132.951 10.61 132.546 10.61C132.177 10.61 131.876 10.7634 131.646 11.0711C131.458 11.3162 131.347 11.6089 131.31 11.9512H133.666Z" fill="white"/>
</svg>
