<svg width="24" height="25" viewBox="0 0 24 25" fill="none" xmlns="http://www.w3.org/2000/svg">
<g clip-path="url(#clip0_129_246)">
<rect width="24" height="24" transform="translate(0 0.0969238)" fill="#1877F2"/>
<path d="M23.5 12.1668C23.5 5.81553 18.3513 0.666803 12 0.666803C5.64872 0.666803 0.5 5.81553 0.5 12.1668C0.5 17.9068 4.70538 22.6644 10.2031 23.5271V15.491H7.2832V12.1668H10.2031V9.63321C10.2031 6.75102 11.92 5.15899 14.5468 5.15899C15.805 5.15899 17.1211 5.3836 17.1211 5.3836V8.21368H15.671C14.2424 8.21368 13.7969 9.10014 13.7969 10.0096V12.1668H16.9863L16.4765 15.491H13.7969V23.5271C19.2946 22.6644 23.5 17.9068 23.5 12.1668Z" fill="white"/>
</g>
<defs>
<clipPath id="clip0_129_246">
<rect width="24" height="24" fill="white" transform="translate(0 0.0969238)"/>
</clipPath>
</defs>
</svg>
