<svg width="153" height="46" viewBox="0 0 153 46" fill="none" xmlns="http://www.w3.org/2000/svg">
<path d="M147.333 0H5.66667C2.53705 0 0 2.53705 0 5.66667V39.6667C0 42.7963 2.53705 45.3333 5.66667 45.3333H147.333C150.463 45.3333 153 42.7963 153 39.6667V5.66667C153 2.53705 150.463 0 147.333 0Z" fill="#A6A6A6"/>
<path d="M77.2254 24.65C76.2737 24.6545 75.3447 24.9408 74.5556 25.4727C73.7665 26.0047 73.1527 26.7585 72.7916 27.639C72.4305 28.5196 72.3383 29.4873 72.5267 30.4202C72.7152 31.353 73.1757 32.2091 73.8502 32.8805C74.5247 33.5518 75.383 34.0083 76.3167 34.1924C77.2504 34.3764 78.2177 34.2797 79.0965 33.9145C79.9753 33.5492 80.7263 32.9319 81.2545 32.1403C81.7828 31.3487 82.0647 30.4183 82.0648 29.4667C82.074 28.8296 81.955 28.1973 81.7147 27.6072C81.4745 27.0172 81.118 26.4815 80.6665 26.0321C80.215 25.5827 79.6776 25.2287 79.0864 24.9913C78.4953 24.7538 77.8624 24.6378 77.2254 24.65V24.65ZM77.2254 32.3907C76.6401 32.4316 76.0561 32.2955 75.5492 32.0001C75.0423 31.7047 74.6359 31.2636 74.383 30.7342C74.1301 30.2048 74.0423 29.6116 74.131 29.0316C74.2198 28.4517 74.4809 27.9118 74.8805 27.4822C75.2801 27.0527 75.7997 26.7532 76.3718 26.6229C76.9438 26.4925 77.5418 26.5373 78.0881 26.7513C78.6344 26.9653 79.1036 27.3387 79.4349 27.823C79.7661 28.3072 79.944 28.88 79.9454 29.4667C79.9637 29.8384 79.9073 30.21 79.7796 30.5597C79.652 30.9093 79.4556 31.2298 79.2021 31.5023C78.9486 31.7748 78.6431 31.9938 78.3036 32.1464C77.9641 32.299 77.5975 32.382 77.2254 32.3907ZM66.6741 24.65C65.7219 24.6522 64.7918 24.9366 64.0012 25.4672C63.2106 25.9979 62.595 26.7509 62.2322 27.6312C61.8693 28.5116 61.7755 29.4797 61.9627 30.4133C62.1498 31.3469 62.6095 32.204 63.2835 32.8765C63.9576 33.549 64.8159 34.0066 65.7499 34.1916C66.6839 34.3765 67.6518 34.2805 68.5313 33.9156C69.4107 33.5507 70.1623 32.9333 70.6911 32.1415C71.2199 31.3496 71.5021 30.4188 71.5021 29.4667C71.5113 28.8296 71.3923 28.1973 71.1521 27.6072C70.9119 27.0172 70.5554 26.4815 70.1038 26.0321C69.6523 25.5827 69.115 25.2287 68.5238 24.9913C67.9326 24.7538 67.2997 24.6378 66.6627 24.65H66.6741ZM66.6741 32.3907C66.0885 32.4339 65.5035 32.2998 64.9952 32.0059C64.4869 31.7121 64.0788 31.2719 63.8241 30.7429C63.5695 30.2139 63.48 29.6204 63.5673 29.0398C63.6546 28.4591 63.9147 27.9182 64.3137 27.4875C64.7127 27.0568 65.2322 26.7561 65.8044 26.6247C66.3767 26.4934 66.9753 26.5373 67.5222 26.7508C68.0692 26.9644 68.5391 27.3377 68.871 27.822C69.2028 28.3064 69.3812 28.8795 69.3827 29.4667C69.401 29.8384 69.3446 30.21 69.217 30.5597C69.0893 30.9093 68.8929 31.2298 68.6394 31.5023C68.3859 31.7748 68.0804 31.9938 67.7409 32.1464C67.4014 32.299 67.0348 32.382 66.6627 32.3907H66.6741ZM54.1054 26.1347V28.1747H59.0014C58.9246 29.1355 58.5252 30.0422 57.8681 30.7473C57.3783 31.2463 56.7894 31.6371 56.1394 31.8948C55.4894 32.1524 54.7927 32.2712 54.0941 32.2433C52.6513 32.2433 51.2676 31.6702 50.2474 30.65C49.2272 29.6298 48.6541 28.2461 48.6541 26.8033C48.6541 25.3605 49.2272 23.9769 50.2474 22.9567C51.2676 21.9365 52.6513 21.3633 54.0941 21.3633C55.4742 21.3408 56.807 21.8666 57.8001 22.8253L59.2394 21.386C58.569 20.7071 57.7692 20.1698 56.8873 19.8057C56.0054 19.4417 55.0594 19.2584 54.1054 19.2667C53.0979 19.2274 52.0928 19.392 51.1504 19.7506C50.208 20.1091 49.3476 20.6542 48.6209 21.3531C47.8942 22.0521 47.3161 22.8906 46.9212 23.8183C46.5263 24.7461 46.3228 25.744 46.3228 26.7523C46.3228 27.7606 46.5263 28.7585 46.9212 29.6863C47.3161 30.614 47.8942 31.4525 48.6209 32.1515C49.3476 32.8505 50.208 33.3956 51.1504 33.7541C52.0928 34.1126 53.0979 34.2772 54.1054 34.238C55.0755 34.2818 56.0437 34.1174 56.9449 33.7557C57.8461 33.3941 58.6594 32.8436 59.3301 32.1413C60.5174 30.8368 61.1514 29.1218 61.0981 27.3587C61.1017 26.9291 61.0638 26.5002 60.9847 26.078L54.1054 26.1347ZM105.457 27.7213C105.161 26.8518 104.608 26.0925 103.872 25.544C103.135 24.9956 102.249 24.6838 101.331 24.65C100.711 24.6488 100.098 24.7747 99.5285 25.0201C98.9592 25.2654 98.4463 25.6249 98.0214 26.0763C97.5965 26.5278 97.2687 27.0615 97.0583 27.6447C96.8479 28.2278 96.7593 28.8479 96.7981 29.4667C96.7843 30.1001 96.8983 30.7298 97.1334 31.3182C97.3684 31.9065 97.7196 32.4415 98.1661 32.8911C98.6125 33.3407 99.145 33.6957 99.7316 33.9349C100.318 34.1741 100.947 34.2926 101.581 34.2833C102.374 34.2876 103.155 34.0952 103.855 33.7234C104.555 33.3515 105.152 32.8118 105.593 32.1527L103.949 31.0193C103.704 31.4282 103.357 31.7664 102.942 32.0008C102.527 32.2353 102.058 32.3579 101.581 32.3567C101.09 32.3754 100.605 32.2459 100.188 31.9852C99.7719 31.7245 99.4436 31.3445 99.2461 30.8947L105.695 28.2313L105.457 27.7213ZM98.8834 29.3307C98.8604 28.9801 98.9076 28.6285 99.0223 28.2964C99.1369 27.9643 99.3166 27.6585 99.5509 27.3967C99.7852 27.135 100.069 26.9226 100.387 26.7721C100.704 26.6215 101.048 26.5358 101.399 26.52C101.765 26.4959 102.13 26.5797 102.448 26.7611C102.766 26.9424 103.024 27.2133 103.19 27.54L98.8834 29.3307ZM93.6474 34H95.7667V19.8333H93.6474V34ZM90.1794 25.7267H90.1001C89.7807 25.3695 89.3894 25.084 88.9519 24.8886C88.5144 24.6933 88.0405 24.5927 87.5614 24.5933C86.3229 24.6534 85.155 25.1877 84.2996 26.0854C83.4443 26.9832 82.9673 28.1757 82.9673 29.4157C82.9673 30.6556 83.4443 31.8481 84.2996 32.7459C85.155 33.6436 86.3229 34.1779 87.5614 34.238C88.0417 34.2461 88.5179 34.1488 88.9565 33.953C89.3951 33.7572 89.7854 33.4676 90.1001 33.1047H90.1681V33.796C90.1681 35.6433 89.1821 36.6293 87.5954 36.6293C87.067 36.617 86.5541 36.4476 86.1222 36.1429C85.6903 35.8381 85.3589 35.4117 85.1701 34.918L83.3227 35.6887C83.6705 36.5345 84.263 37.2572 85.0243 37.7641C85.7855 38.2709 86.6809 38.5388 87.5954 38.5333C90.0774 38.5333 92.1287 37.0713 92.1287 33.5127V24.9333H90.1794V25.7267ZM87.7541 32.3907C87.023 32.3262 86.3426 31.9903 85.847 31.449C85.3513 30.9078 85.0764 30.2005 85.0764 29.4667C85.0764 28.7328 85.3513 28.0255 85.847 27.4843C86.3426 26.943 87.023 26.6071 87.7541 26.5427C88.1165 26.5613 88.4716 26.6522 88.7984 26.8102C89.1252 26.9681 89.417 27.1899 89.6568 27.4623C89.8965 27.7348 90.0793 28.0526 90.1944 28.3968C90.3094 28.741 90.3544 29.1048 90.3267 29.4667C90.3577 29.8301 90.3145 30.1961 90.2 30.5424C90.0855 30.8887 89.9019 31.2082 89.6603 31.4815C89.4188 31.7548 89.1243 31.9763 88.7947 32.1326C88.4651 32.2888 88.1072 32.3766 87.7427 32.3907H87.7541ZM115.385 19.8333H110.319V34H112.438V28.628H115.396C116 28.6714 116.607 28.5899 117.178 28.3885C117.749 28.1872 118.272 27.8704 118.716 27.4578C119.159 27.0452 119.512 26.5458 119.754 25.9905C119.996 25.4353 120.121 24.8362 120.121 24.2307C120.121 23.6251 119.996 23.026 119.754 22.4708C119.512 21.9155 119.159 21.4161 118.716 21.0035C118.272 20.5909 117.749 20.2741 117.178 20.0728C116.607 19.8714 116 19.7899 115.396 19.8333H115.385ZM115.385 26.6333H112.427V21.8053H115.43C116.075 21.8053 116.693 22.0614 117.149 22.5173C117.605 22.9732 117.861 23.5916 117.861 24.2363C117.861 24.8811 117.605 25.4994 117.149 25.9553C116.693 26.4112 116.075 26.6673 115.43 26.6673L115.385 26.6333ZM128.452 24.5933C127.681 24.5472 126.912 24.7275 126.242 25.1121C125.571 25.4966 125.028 26.0687 124.678 26.758L126.559 27.54C126.745 27.1981 127.026 26.9175 127.368 26.7324C127.71 26.5473 128.098 26.4656 128.486 26.4973C128.755 26.4659 129.028 26.4884 129.288 26.5634C129.548 26.6385 129.791 26.7646 130.002 26.9345C130.213 27.1043 130.388 27.3145 130.517 27.5527C130.646 27.7909 130.726 28.0524 130.753 28.322V28.4693C130.072 28.1089 129.313 27.9221 128.543 27.9253C126.514 27.9253 124.463 29.0587 124.463 31.11C124.483 31.5474 124.59 31.9763 124.779 32.3714C124.968 32.7666 125.234 33.1199 125.561 33.4104C125.889 33.701 126.271 33.9229 126.686 34.0631C127.101 34.2033 127.539 34.2589 127.976 34.2267C128.51 34.265 129.044 34.1589 129.523 33.9196C130.001 33.6803 130.407 33.3166 130.696 32.8667H130.764V34H132.804V28.5487C132.804 26.0667 130.923 24.6273 128.509 24.6273L128.452 24.5933ZM128.191 32.3567C127.5 32.3567 126.537 32.0053 126.537 31.1553C126.537 30.022 127.738 29.648 128.803 29.648C129.477 29.6314 130.142 29.7958 130.73 30.124C130.659 30.7376 130.369 31.3049 129.913 31.7214C129.457 32.1379 128.866 32.3756 128.248 32.3907L128.191 32.3567ZM140.239 24.9333L137.813 31.076H137.745L135.229 24.9333H132.963L136.737 33.524L134.583 38.2953H136.793L142.596 24.9333H140.239ZM121.187 34H123.307V19.8333H121.187V34Z" fill="white"/>
<path d="M53.6719 11.6761C53.6912 12.0918 53.6258 12.5071 53.4797 12.8967C53.3336 13.2864 53.1098 13.6422 52.8219 13.9428C52.5005 14.2766 52.1124 14.539 51.6828 14.7128C51.2532 14.8866 50.7918 14.9679 50.3286 14.9514C49.6259 14.9459 48.9405 14.7332 48.3582 14.3398C47.7759 13.9465 47.3226 13.39 47.0552 12.7402C46.7878 12.0904 46.7181 11.3761 46.8548 10.6868C46.9916 9.99753 47.3287 9.36395 47.8239 8.86544C48.1494 8.53313 48.5397 8.27114 48.9705 8.0957C49.4013 7.92025 49.8636 7.83507 50.3286 7.84544C50.8077 7.84384 51.2821 7.94026 51.7226 8.12877C52.1327 8.29419 52.4978 8.5544 52.7879 8.88811L52.1873 9.48877C51.9611 9.21971 51.6754 9.00695 51.3528 8.86729C51.0302 8.72764 50.6796 8.66493 50.3286 8.68411C49.9746 8.68237 49.6239 8.75214 49.2975 8.88923C48.9711 9.02632 48.6758 9.2279 48.4292 9.4819C48.1826 9.7359 47.9898 10.0371 47.8625 10.3674C47.7351 10.6977 47.6757 11.0503 47.6879 11.4041C47.6805 11.9324 47.8297 12.451 48.1167 12.8946C48.4037 13.3382 48.8157 13.6869 49.3006 13.8966C49.7855 14.1063 50.3217 14.1677 50.8415 14.0731C51.3613 13.9784 51.8414 13.732 52.2213 13.3648C52.57 12.9868 52.7712 12.4961 52.7879 11.9821H50.3286V11.1661H53.6266C53.6568 11.3344 53.672 11.5051 53.6719 11.6761ZM58.8626 8.84277H55.8026V10.9961H58.5906V11.8121H55.8026V13.9654H58.8626V14.8041H54.8959V8.0041H58.8626V8.84277ZM62.5799 14.8041H61.7073V8.84277H59.8033V8.0041H64.5293V8.84277H62.5799V14.8041ZM67.8613 14.8041V8.0041H68.7339V14.8041H67.8613ZM72.6099 14.8041H71.7373V8.84277H69.8333V8.0041H74.5026V8.84277H72.6099V14.8041ZM83.354 13.9201C82.6914 14.579 81.795 14.9488 80.8606 14.9488C79.9262 14.9488 79.0298 14.579 78.3673 13.9201C77.7233 13.2384 77.3645 12.3362 77.3645 11.3984C77.3645 10.4607 77.7233 9.55845 78.3673 8.87677C78.6939 8.54781 79.0823 8.28673 79.5102 8.10857C79.9381 7.9304 80.3971 7.83868 80.8606 7.83868C81.3242 7.83868 81.7831 7.9304 82.211 8.10857C82.6389 8.28673 83.0274 8.54781 83.354 8.87677C84.0005 9.55714 84.361 10.4599 84.361 11.3984C84.361 12.337 84.0005 13.2397 83.354 13.9201ZM79.0133 13.3534C79.5039 13.842 80.1682 14.1164 80.8606 14.1164C81.5531 14.1164 82.2173 13.842 82.7079 13.3534C83.1922 12.8197 83.4604 12.1248 83.4604 11.4041C83.4604 10.6834 83.1922 9.98855 82.7079 9.45477C82.2173 8.96617 81.5531 8.69184 80.8606 8.69184C80.1682 8.69184 79.5039 8.96617 79.0133 9.45477C78.5291 9.98855 78.2609 10.6834 78.2609 11.4041C78.2609 12.1248 78.5291 12.8197 79.0133 13.3534ZM85.5866 14.8041V8.0041H86.6519L89.9613 13.2968V8.0041H90.8339V14.8041H89.9273L86.4706 9.26211V14.8041H85.5866Z" fill="white"/>
<path fill-rule="evenodd" clip-rule="evenodd" d="M80.8606 7.95201C80.412 7.95201 79.9679 8.04077 79.5538 8.21319C79.1401 8.38543 78.7645 8.63774 78.4487 8.95562C77.8252 9.61614 77.4778 10.4901 77.4778 11.3984C77.4778 12.3067 77.8251 13.1805 78.4485 13.841C79.0897 14.478 79.9568 14.8355 80.8606 14.8355C81.7645 14.8355 82.6317 14.4779 83.2729 13.8409C83.8987 13.1817 84.2477 12.3074 84.2477 11.3984C84.2477 10.4893 83.8986 9.61497 83.2727 8.95577C82.9568 8.63782 82.5812 8.38546 82.1675 8.21319C81.7533 8.04077 81.3092 7.95201 80.8606 7.95201ZM79.4667 8.00394C79.9084 7.82003 80.3821 7.72534 80.8606 7.72534C81.3391 7.72534 81.8129 7.82003 82.2546 8.00394C82.6963 8.18785 83.0973 8.45736 83.4344 8.79693L83.4361 8.79868C84.1027 9.50012 84.4743 10.4308 84.4743 11.3984C84.4743 12.3661 84.1027 13.2967 83.4361 13.9982L83.4339 14.0005C82.7501 14.6805 81.8249 15.0621 80.8606 15.0621C79.8963 15.0621 78.9712 14.6804 78.2874 14.0005L78.2849 13.998C77.621 13.2953 77.2512 12.3651 77.2512 11.3984C77.2512 10.4317 77.621 9.50166 78.2849 8.79894L78.2868 8.7969C78.6239 8.45733 79.0249 8.18785 79.4667 8.00394ZM50.3261 7.95874C49.8765 7.94873 49.4297 8.03106 49.0132 8.20066C48.5968 8.37026 48.2196 8.62351 47.9049 8.94474L47.9043 8.94532C47.4248 9.428 47.0984 10.0415 46.966 10.7089C46.8336 11.3763 46.9011 12.0679 47.16 12.6971C47.4189 13.3263 47.8578 13.8651 48.4216 14.2459C48.9854 14.6268 49.6491 14.8328 50.3295 14.8381L50.3326 14.8381C50.7799 14.8541 51.2254 14.7756 51.6403 14.6078C52.0551 14.44 52.4298 14.1866 52.7402 13.8643C53.0174 13.5749 53.2329 13.2321 53.3736 12.8569C53.5143 12.4817 53.5773 12.0817 53.5587 11.6814L53.6719 11.6761L53.5586 11.6761C53.5587 11.5433 53.5492 11.4108 53.5302 11.2794H50.4419V11.8688H52.905L52.9012 11.9858C52.8835 12.527 52.6718 13.0437 52.3046 13.4416L52.3002 13.4464C51.9042 13.8292 51.4036 14.0859 50.8618 14.1846C50.32 14.2833 49.7611 14.2192 49.2556 14.0006C48.7501 13.782 48.3207 13.4186 48.0216 12.9562C47.7229 12.4946 47.5674 11.955 47.5746 11.4053C47.5622 11.0371 47.6242 10.6703 47.7567 10.3266C47.8896 9.98207 48.0907 9.66791 48.3479 9.40296C48.6051 9.13801 48.9132 8.92773 49.2536 8.78473C49.593 8.64217 49.9577 8.56941 50.3258 8.57076C50.6932 8.55121 51.0602 8.6171 51.3978 8.76329C51.6988 8.89357 51.9691 9.08444 52.1922 9.32353L52.6316 8.88418C52.3655 8.60144 52.041 8.37942 51.6802 8.23388L51.678 8.23299C51.2517 8.05056 50.7927 7.95723 50.329 7.95877L50.3261 7.95874ZM53.7853 11.6735C53.8049 12.1037 53.737 12.5333 53.5858 12.9365C53.4343 13.3405 53.2023 13.7096 52.9038 14.0212C52.5713 14.3665 52.1696 14.6381 51.7253 14.8179C51.2814 14.9975 50.8047 15.0816 50.3262 15.0648C49.6017 15.0588 48.8951 14.8393 48.2948 14.4337C47.694 14.0279 47.2263 13.4538 46.9504 12.7833C46.6745 12.1129 46.6025 11.3759 46.7436 10.6648C46.8847 9.95373 47.2324 9.30014 47.7433 8.78584C48.0796 8.44259 48.4827 8.17198 48.9278 7.99073C49.3725 7.80962 49.8496 7.7216 50.3297 7.7321C50.8234 7.73065 51.3122 7.83002 51.7661 8.02411C52.1924 8.19625 52.5718 8.46683 52.8735 8.81374L52.9428 8.89351L52.18 9.65628L52.1005 9.5617C51.8856 9.3061 51.6142 9.10397 51.3078 8.9713C51.0013 8.83863 50.6682 8.77905 50.3348 8.79727L50.3281 8.79764C49.9893 8.79598 49.6537 8.86254 49.3414 8.99372C49.0291 9.1249 48.7465 9.3178 48.5105 9.56085C48.2745 9.8039 48.0901 10.0921 47.9682 10.4082C47.8463 10.7242 47.7895 11.0616 47.8012 11.4002L47.8014 11.4057C47.7943 11.9116 47.937 12.4083 48.2119 12.8331C48.4867 13.2579 48.8812 13.5917 49.3456 13.7926C49.81 13.9934 50.3234 14.0522 50.8212 13.9616C51.3179 13.8711 51.7768 13.6359 52.1402 13.2855C52.4426 12.9568 52.6273 12.5382 52.6675 12.0954H50.2153V11.0528H53.7214L53.7382 11.1461C53.7694 11.3201 53.7852 11.4966 53.7853 11.6735ZM54.7826 7.89077H58.9759V8.9561H55.9159V10.8828H58.7039V11.9254H55.9159V13.8521H58.9759V14.9174H54.7826V7.89077ZM55.0093 8.11744V14.6908H58.7493V14.0788H55.6893V11.6988H58.4773V11.1094H55.6893V8.72944H58.7493V8.11744H55.0093ZM59.6899 7.89077H64.6426V8.9561H62.6933V14.9174H61.5939V8.9561H59.6899V7.89077ZM59.9166 8.11744V8.72944H61.8206V14.6908H62.4666V8.72944H64.4159V8.11744H59.9166ZM67.748 7.89077H68.8473V14.9174H67.748V7.89077ZM67.9746 8.11744V14.6908H68.6206V8.11744H67.9746ZM69.7199 7.89077H74.616V8.9561H72.7233V14.9174H71.6239V8.9561H69.7199V7.89077ZM69.9466 8.11744V8.72944H71.8506V14.6908H72.4966V8.72944H74.3893V8.11744H69.9466ZM85.4733 7.89077H86.7147L89.848 12.9017V7.89077H90.9473V14.9174H89.8644L86.584 9.65796V14.9174H85.4733V7.89077ZM85.7 8.11744V14.6908H86.3573V8.86625L89.9902 14.6908H90.7206V8.11744H90.0746V13.6918L86.5891 8.11744H85.7ZM78.9333 9.37447C79.4452 8.86471 80.1382 8.57851 80.8606 8.57851C81.583 8.57851 82.276 8.86471 82.7879 9.37447L82.792 9.37853C83.2951 9.93316 83.5737 10.6553 83.5737 11.4041C83.5737 12.1529 83.295 12.875 82.7919 13.4296L82.788 13.4338C82.2761 13.9436 81.583 14.2297 80.8606 14.2297C80.1382 14.2297 79.4452 13.9435 78.9333 13.4337L79.0133 13.3534L78.9293 13.4296C78.4262 12.875 78.1475 12.1529 78.1475 11.4041C78.1475 10.6553 78.4262 9.93326 78.9293 9.37863L78.9333 9.37447ZM79.0953 13.2752C79.5645 13.7413 80.1991 14.003 80.8606 14.003C81.5221 14.003 82.1567 13.7413 82.6259 13.2752C83.09 12.7625 83.347 12.0957 83.347 11.4041C83.347 10.7125 83.09 10.0457 82.6259 9.53304C82.1567 9.06686 81.5221 8.80518 80.8606 8.80518C80.1991 8.80518 79.5645 9.06686 79.0953 9.53304C78.6312 10.0457 78.3742 10.7125 78.3742 11.4041C78.3742 12.0957 78.6312 12.7625 79.0953 13.2752Z" fill="white"/>
<path d="M11.8947 37.0582L25.7787 22.6578L11.9063 8.2832C11.5358 8.507 11.3065 9.02517 11.3065 9.70346V35.6518C11.3115 36.33 11.5325 36.8103 11.8947 37.0582V37.0582Z" fill="white"/>
<path d="M26.2761 22.2602L30.4117 17.9701L13.5701 8.39168C13.2866 8.22077 12.9644 8.1305 12.6364 8.13L26.2744 22.2584L26.2761 22.2602Z" fill="white"/>
<path d="M26.276 23.0573L12.5947 37.2477C12.9381 37.2536 13.2763 37.1606 13.5717 36.9791L30.4465 27.3748L26.276 23.0573Z" fill="white"/>
<path d="M36.5128 21.4458L30.9084 18.2524L26.6598 22.6595L30.94 27.0941L36.5112 23.9093C37.6959 23.2328 37.6958 22.119 36.5128 21.4458Z" fill="white"/>
</svg>
